<svg width="564" height="484" viewBox="0 0 564 484" fill="none" xmlns="http://www.w3.org/2000/svg">
<path d="M346.55 472.88H322.87C321.462 472.88 320.111 472.32 319.116 471.325C318.12 470.329 317.56 468.978 317.56 467.57V414.34C317.556 413.527 317.365 412.726 317 412L270.41 315.91C269.883 314.833 269.008 313.966 267.925 313.45C266.843 312.934 265.618 312.799 264.449 313.068C263.281 313.337 262.238 313.994 261.49 314.931C260.742 315.868 260.333 317.031 260.33 318.23V467.57C260.332 468.267 260.196 468.957 259.93 469.601C259.664 470.245 259.274 470.831 258.781 471.324C258.289 471.817 257.705 472.209 257.061 472.476C256.417 472.743 255.727 472.88 255.03 472.88H231.38C230.683 472.879 229.993 473.015 229.349 473.281C228.705 473.546 228.119 473.936 227.626 474.429C227.133 474.921 226.742 475.506 226.475 476.149C226.208 476.793 226.07 477.483 226.07 478.18V478.54C226.07 479.948 226.63 481.299 227.626 482.295C228.621 483.291 229.972 483.85 231.38 483.85H346.55C347.247 483.85 347.937 483.713 348.581 483.446C349.224 483.179 349.809 482.787 350.302 482.294C350.794 481.801 351.184 481.215 351.45 480.571C351.716 479.927 351.852 479.237 351.85 478.54V478.18C351.85 476.774 351.292 475.426 350.298 474.432C349.304 473.438 347.956 472.88 346.55 472.88Z" fill="#212529"/>
<path d="M120.65 472.88H97.0001C95.5918 472.88 94.2412 472.321 93.2454 471.325C92.2496 470.329 91.6901 468.978 91.6901 467.57V250.24C91.6901 249.543 91.8275 248.853 92.0945 248.209C92.3615 247.566 92.7528 246.981 93.246 246.489C93.7392 245.997 94.3247 245.606 94.9688 245.341C95.613 245.075 96.3033 244.939 97.0001 244.94H227.55C228.958 244.94 230.309 244.381 231.305 243.385C232.301 242.389 232.86 241.038 232.86 239.63C232.86 238.222 232.301 236.871 231.305 235.875C230.309 234.879 228.958 234.32 227.55 234.32H97.0001C96.3033 234.321 95.613 234.185 94.9688 233.919C94.3247 233.654 93.7392 233.263 93.246 232.771C92.7528 232.279 92.3615 231.694 92.0945 231.051C91.8275 230.407 91.6901 229.717 91.6901 229.02V16.43C91.6901 15.7332 91.8275 15.0432 92.0945 14.3995C92.3615 13.7558 92.7528 13.1711 93.246 12.6788C93.7392 12.1865 94.3247 11.7963 94.9688 11.5306C95.613 11.2648 96.3033 11.1287 97.0001 11.13H120.68C121.377 11.13 122.067 10.9926 122.711 10.7256C123.354 10.4587 123.939 10.0673 124.431 9.57414C124.924 9.08093 125.314 8.49548 125.58 7.8513C125.845 7.20712 125.981 6.51686 125.98 5.82002V5.46C125.98 4.05435 125.422 2.70629 124.428 1.71235C123.434 0.718408 122.086 0.160013 120.68 0.160013H5.43011C4.73327 0.158698 4.04301 0.294826 3.39883 0.560587C2.75465 0.826348 2.16921 1.21653 1.67599 1.70881C1.18278 2.20109 0.791481 2.78581 0.524506 3.42948C0.257531 4.07316 0.120116 4.76315 0.120117 5.46V5.82002C0.120117 7.22832 0.679566 8.57893 1.67538 9.57475C2.6712 10.5706 4.02182 11.13 5.43011 11.13H29.1001C29.797 11.1287 30.4872 11.2648 31.1314 11.5306C31.7756 11.7963 32.361 12.1865 32.8542 12.6788C33.3475 13.1711 33.7388 13.7558 34.0057 14.3995C34.2727 15.0432 34.4101 15.7332 34.4101 16.43V467.57C34.4101 468.978 33.8507 470.329 32.8549 471.325C31.859 472.321 30.5084 472.88 29.1001 472.88H5.43011C4.73327 472.879 4.04301 473.015 3.39883 473.281C2.75465 473.546 2.16921 473.936 1.67599 474.429C1.18278 474.921 0.791481 475.506 0.524506 476.149C0.257531 476.793 0.120116 477.483 0.120117 478.18V478.54C0.120117 479.948 0.679566 481.299 1.67538 482.295C2.6712 483.291 4.02182 483.85 5.43011 483.85H120.65C121.347 483.85 122.037 483.713 122.681 483.446C123.324 483.179 123.909 482.787 124.401 482.294C124.894 481.801 125.284 481.215 125.55 480.571C125.815 479.927 125.951 479.237 125.95 478.54V478.18C125.95 477.484 125.813 476.795 125.547 476.152C125.28 475.509 124.89 474.924 124.398 474.432C123.906 473.94 123.321 473.55 122.678 473.283C122.035 473.017 121.346 472.88 120.65 472.88Z" fill="#212529"/>
<path d="M558.56 0.150003H443.4C441.992 0.152636 440.642 0.712628 439.645 1.70759C438.648 2.70255 438.086 4.0516 438.08 5.46V5.82002C438.08 6.51686 438.218 7.20686 438.485 7.85053C438.752 8.49421 439.143 9.07893 439.636 9.57121C440.129 10.0635 440.715 10.4537 441.359 10.7194C442.003 10.9852 442.693 11.1213 443.39 11.12H481.39C483.204 11.12 484.944 11.8406 486.227 13.1234C487.51 14.4061 488.23 16.1459 488.23 17.96V353L318.66 3.15C318.226 2.25123 317.547 1.49306 316.702 0.962442C315.856 0.431821 314.878 0.150231 313.88 0.150003H231.38C230.683 0.148689 229.993 0.284816 229.349 0.550577C228.705 0.816338 228.119 1.20652 227.626 1.6988C227.133 2.19108 226.742 2.7758 226.475 3.41947C226.208 4.06315 226.07 4.75317 226.07 5.45002V5.81001C226.07 7.21831 226.63 8.56892 227.626 9.56474C228.621 10.5606 229.972 11.12 231.38 11.12H256.48C257.477 11.1209 258.453 11.4029 259.297 11.9336C260.141 12.4642 260.818 13.222 261.25 14.12L347.36 191.76L438.76 380.26L487.52 480.86C487.952 481.759 488.629 482.517 489.473 483.048C490.317 483.579 491.293 483.86 492.29 483.86H508.36C509.057 483.86 509.747 483.723 510.391 483.456C511.035 483.189 511.619 482.797 512.112 482.304C512.604 481.811 512.994 481.225 513.26 480.581C513.526 479.937 513.662 479.247 513.66 478.55V442.15V18C513.66 16.1859 514.381 14.4461 515.664 13.1634C516.946 11.8807 518.686 11.16 520.5 11.16H558.5C559.906 11.16 561.254 10.6016 562.248 9.60768C563.242 8.61373 563.8 7.26564 563.8 5.85999V5.50001C563.808 4.09762 563.262 2.74877 562.281 1.74687C561.3 0.744967 559.963 0.171069 558.56 0.150003Z" fill="#212529"/>
</svg>
